# xmcd
#
# Track frame offsets: 
#        150
#        20775
#        43220
#        63312
#        82420
#        91207
#        111825
#        125552
#        144855
#        168987
#        195590
#        217177
#
# Disc length: 3096 seconds
#
# Revision: 4
# Processed by: cddbd v1.5.2PL0 Copyright (c) Steve Scherf et al.
# Submitted via: ExactAudioCopy v1.1
#
DISCID=b20c160c
DTITLE=Seal - Human Being
DYEAR=1998
DGENRE=Synthpop
TTITLE0=Human Beings
TTITLE1=State Of Grace
TTITLE2=Latest Craze
TTITLE3=Just Like You Said
TTITLE4=Princess
TTITLE5=Lost My Faith
TTITLE6=Excerpt From
TTITLE7=When A Man Is Wrong
TTITLE8=Colour
TTITLE9=Still Love Remains
TTITLE10=No Easy Way
TTITLE11=Human Beings (Reprise)
EXTD=YEAR: 1998
EXTT0=
EXTT1=
EXTT2=
EXTT3=
EXTT4=
EXTT5=
EXTT6=
EXTT7=
EXTT8=
EXTT9=
EXTT10=
EXTT11=
PLAYORDER=
